<svg xmlns="http://www.w3.org/2000/svg" xmlns:xlink="http://www.w3.org/1999/xlink" version="1.1" style="enable-background:new 0 0 512 512;" xml:space="preserve" width="377" height="353">
  <rect id="backgroundrect" width="100%" height="100%" x="0" y="0" fill="none" stroke="none" class="" style=""/>
  <g class="currentLayer" style="">
    <title>Layer 1</title>
    <rect x="8.38455581665039" y="8.814108848571777" style="fill:#F2BF7E;" width="360.62298583984375" height="336.5840148925781" id="svg_2" class=""/>
    <rect x="8.38455581665039" y="8.814108848571777" style="fill:#AA603B;" width="88.1520004272461" height="336.5840148925781" id="svg_3" class=""/>
    <polygon style="fill:#F2F2F2;" points="136.6075439453125,8.818107604980469 136.6075439453125,104.98509216308594 170.46754455566406,97.51609802246094 189.53353881835938,107.05009460449219 208.59954833984375,97.51609802246094 240.78854370117188,104.98509216308594 240.78854370117188,8.818107604980469 " id="svg_4" class=""/>
    <polygon style="fill:#FFFFFF;" points="173.57943725585938,212.37574768066406 253.71852111816406,212.37574768066406 253.71852111816406,156.2777557373047 53.37043380737305,156.2777557373047 53.37043380737305,252.44482421875 173.57943725585938,252.44482421875 " id="svg_5" class=""/>
    <polygon points="157.5514373779297,260.27386474609375 45.54243469238281,260.27386474609375 45.54243469238281,148.44876098632812 261.5475158691406,148.44876098632812 261.5475158691406,196.34776306152344 245.89053344726562,196.34776306152344 245.89053344726562,164.1067657470703 61.19943618774414,164.1067657470703 61.19943618774414,244.61679077148438 157.5514373779297,244.61679077148438 " id="svg_8" class=""/>
    <path d="M0.555555582046509,0.9891059188842779 v352.242 h376.285 V0.9891059188842779 H0.555555582046509 zM144.4365555820465,16.64710591888428 h88.523 v78.485 l-25.338,-5.88 l-18.088,9.046 l-18.045,-9.024 l-27.053,5.968 L144.4365555820465,16.64710591888428 L144.4365555820465,16.64710591888428 zM361.1835555820465,337.5751059188843 H16.21255558204651 V16.64710591888428 h112.566 v98.083 l40.668,-8.972 l20.088,10.045 l20.044,-10.023 l39.039,9.059 V16.64710591888428 h112.566 L361.1835555820465,337.5751059188843 L361.1835555820465,337.5751059188843 z" id="svg_7" class=""/>
    
    
    <rect x="84.95545196533203" y="180.2857666015625" width="128.39100646972656" height="15.656999588012695" id="svg_11" class=""/>
    
    <rect x="84.95545196533203" y="212.644775390625" width="24.007999420166016" height="15.656999588012695" id="svg_16" class=""/>
    <rect x="117.31444549560547" y="211.9503173828125" style="fill:#AA603B;" width="32.35900115966797" height="15.656999588012695" id="svg_17" class=""/>
    <g id="svg_19" class=""/>
    <g id="svg_20" class=""/>
    <g id="svg_21" class=""/>
    <g id="svg_22" class=""/>
    <g id="svg_23" class=""/>
    <g id="svg_24" class=""/>
    <g id="svg_25" class=""/>
    <g id="svg_26" class=""/>
    <g id="svg_27" class=""/>
    <g id="svg_28" class=""/>
    <g id="svg_29" class=""/>
    <g id="svg_30" class=""/>
    <g id="svg_31" class=""/>
    <g id="svg_32" class=""/>
    <g id="svg_33" class=""/>
    
  <rect fill="#000000" stroke-dashoffset="" fill-rule="nonzero" id="svg_42" x="173.9166717529297" y="210.77777099609375" width="108.97223663330078" height="103.49999237060547" style="color: rgb(0, 0, 0);" class=""/><rect fill="#ffffff" stroke-dashoffset="" fill-rule="nonzero" x="185.70685758316128" y="220.61111533716178" width="86.18203481002192" height="83.19444715859575" style="color: rgb(0, 0, 0);" class="" id="svg_9"/><g id="svg_1" class="">
      <path d="M245.07654659660645,231.6348387348682 v15.308431113868021 c0,0.6909363147281242 -0.54375320172286,1.2512897174710926 -1.214220859242093,1.2512897174710926 h-5.017166638811038 c-0.6704676575192354,0 -1.214220859242093,-0.5603534027429693 -1.214220859242093,-1.2512897174710926 V241.79817845503004 c0,-0.6909363147281242 -0.54375320172286,-1.2512897174710926 -1.214220859242093,-1.2512897174710926 h-5.017166638811038 c-0.6704676575192354,0 -1.214220859242093,0.5603534027429693 -1.214220859242093,1.2512897174710926 v5.170023691937226 c0,0.6909363147281242 0.54375320172286,1.2512897174710926 1.214220859242093,1.2512897174710926 h5.017166638811038 c0.6704676575192354,0 1.214220859242093,0.5603534027429693 1.214220859242093,1.2512897174710926 v5.144779739978282 c0,0.6909363147281242 0.54375320172286,1.2512897174710926 1.214220859242093,1.2512897174710926 h12.671143158501732 c0.6704676575192354,0 1.214220859242093,-0.5603534027429693 1.214220859242093,-1.2512897174710926 V249.4458492836784 c0,-0.6909363147281242 0.54375320172286,-1.2512897174710926 1.214220859242093,-1.2512897174710926 h7.200949658633494 c0.6704676575192354,0 1.214220859242093,-0.5603534027429693 1.214220859242093,-1.2512897174710926 v-15.308431113868021 c0,-0.6909363147281242 -0.54375320172286,-1.2512897174710926 -1.214220859242093,-1.2512897174710926 h-14.854926178324185 C245.6202997983293,230.38354901739712 245.07654659660645,230.94359076641217 245.07654659660645,231.6348387348682 z" id="svg_6"/>
      <path d="M209.66242678117246,263.6475980098154 h11.863678726577351 c0.6704676575192354,0 1.214220859242093,-0.5603534027429693 1.214220859242093,-1.2512897174710926 v-5.170335345665114 c0,-0.6909363147281242 -0.54375320172286,-1.2512897174710926 -1.214220859242093,-1.2512897174710926 H209.66242678117246 c-0.6704676575192354,0 -1.214220859242093,0.5603534027429693 -1.214220859242093,1.2512897174710926 v5.170335345665114 C208.44820592193037,263.0872446070724 208.9919591236532,263.6475980098154 209.66242678117246,263.6475980098154 z" id="svg_18"/>
      <path d="M228.97141144390946,230.4910695535185 H219.5963562417912 c-0.6704676575192354,0 -1.214220859242093,0.5603534027429693 -1.214220859242093,1.2512897174710926 v5.170335345665114 c0,0.6909363147281242 0.54375320172286,1.2512897174710926 1.214220859242093,1.2512897174710926 h9.375357623253828 c0.6704676575192354,0 1.214220859242093,-0.5603534027429693 1.214220859242093,-1.2512897174710926 v-5.170335345665114 C230.18563230315152,231.0511113025336 229.64187910142869,230.4910695535185 228.97141144390946,230.4910695535185 z" id="svg_34"/>
      <path d="M237.88164536068393,277.741826199831 v-5.170335345665114 c0,-0.6909363147281242 -0.54375320172286,-1.2512897174710926 -1.214220859242093,-1.2512897174710926 h-5.017166638811038 c-0.6704676575192354,0 -1.214220859242093,0.5603534027429693 -1.214220859242093,1.2512897174710926 v5.170335345665114 c0,0.6909363147281242 0.54375320172286,1.2512897174710926 1.214220859242093,1.2512897174710926 h5.017166638811038 C237.33789215896118,278.9931159173022 237.88164536068393,278.43276251455916 237.88164536068393,277.741826199831 z" id="svg_35"/>
      <path d="M252.73082553743268,271.3202011366949 v-0.6569660583883107 v-5.764347351020009 c0,-0.6909363147281242 -0.54375320172286,-1.2512897174710926 -1.214220859242093,-1.2512897174710926 h-12.420738458264507 c-0.6704676575192354,0 -1.214220859242093,0.5603534027429693 -1.214220859242093,1.2512897174710926 v5.170023691937226 c0,0.6909363147281242 0.54375320172286,1.2512897174710926 1.214220859242093,1.2512897174710926 h4.367566039644908 c0.6704676575192354,0 1.214220859242093,0.5603534027429693 1.214220859242093,1.2512897174710926 v4.770171959056675 v1.6511414503516453 v14.908579380987467 c0,0.6909363147281242 0.54375320172286,1.2512897174710926 1.214220859242093,1.2512897174710926 h14.854926178324185 c0.6704676575192354,0 1.214220859242093,-0.5603534027429693 1.214220859242093,-1.2512897174710926 v-15.308431113868021 c0,-0.6909363147281242 -0.54375320172286,-1.2512897174710926 -1.214220859242093,-1.2512897174710926 h-6.802056180840139 c-0.6704676575192354,0 -1.214220859242093,-0.5603534027429693 -1.214220859242093,-1.2512897174710926 V271.3202011366949 z" id="svg_36"/>
      <path d="M252.73082553743268,257.33380513652855 v5.170023691937226 c0,0.6909363147281242 0.54375320172286,1.2512897174710926 1.214220859242093,1.2512897174710926 h5.017166638811038 c0.6704676575192354,0 1.214220859242093,-0.5603534027429693 1.214220859242093,-1.2512897174710926 V257.33380513652855 c0,-0.6909363147281242 -0.54375320172286,-1.2512897174710926 -1.214220859242093,-1.2512897174710926 h-5.017166638811038 C253.27427631802001,256.0825154190575 252.73082553743268,256.6425571680725 252.73082553743268,257.33380513652855 z" id="svg_37"/>
      <path d="M204.49283989004306,271.3202011366949 h2.7411451726451634 c0.6704676575192354,0 1.214220859242093,-0.5603534027429693 1.214220859242093,-1.2512897174710926 v-5.170023691937226 c0,-0.6909363147281242 -0.54375320172286,-1.2512897174710926 -1.214220859242093,-1.2512897174710926 h-5.017166638811038 c-0.6704676575192354,0 -1.214220859242093,0.5603534027429693 -1.214220859242093,1.2512897174710926 v3.5188822415855823 c0,0.6909363147281242 -0.54375320172286,1.2512897174710926 -1.214220859242093,1.2512897174710926 H197.04753395388343 c-0.6704676575192354,0 -1.214220859242093,0.5603534027429693 -1.214220859242093,1.2512897174710926 v6.421625063136208 v2.0478766459533144 v14.511844185385801 c0,0.6909363147281242 0.54375320172286,1.2512897174710926 1.214220859242093,1.2512897174710926 h14.854926178324185 c0.6704676575192354,0 1.214220859242093,-0.5603534027429693 1.214220859242093,-1.2512897174710926 v-15.308431113868021 c0,-0.6909363147281242 -0.54375320172286,-1.2512897174710926 -1.214220859242093,-1.2512897174710926 H204.49283989004306 c-0.6704676575192354,0 -1.214220859242093,-0.5603534027429693 -1.214220859242093,-1.2512897174710926 v-3.5188822415855823 C203.278619030801,271.8805545394378 203.82237223252386,271.3202011366949 204.49283989004306,271.3202011366949 z" id="svg_38"/>
      <path d="M228.0075952849046,278.9931159173022 v-6.421625063136208 c0,-0.6909363147281242 0.54375320172286,-1.2512897174710926 1.214220859242093,-1.2512897174710926 h0 c0.6704676575192354,0 1.214220859242093,-0.5603534027429693 1.214220859242093,-1.2512897174710926 v-5.0625031558158 c0,-0.6909363147281242 0.54375320172286,-1.2512897174710926 1.214220859242093,-1.2512897174710926 h4.766459517438263 c0.6704676575192354,0 1.214220859242093,-0.5603534027429693 1.214220859242093,-1.2512897174710926 V257.33380513652855 c0,-0.6909363147281242 -0.54375320172286,-1.2512897174710926 -1.214220859242093,-1.2512897174710926 h-5.017166638811038 c-0.6704676575192354,0 -1.214220859242093,0.5603534027429693 -1.214220859242093,1.2512897174710926 v5.0625031558158 c0,0.6909363147281242 -0.54375320172286,1.2512897174710926 -1.214220859242093,1.2512897174710926 H224.2049519264712 c-0.6704676575192354,0 -1.214220859242093,0.5603534027429693 -1.214220859242093,1.2512897174710926 v5.170023691937226 c0,0.6909363147281242 -0.54375320172286,1.2512897174710926 -1.214220859242093,1.2512897174710926 H216.50893886893866 c-0.6704676575192354,0 -1.214220859242093,0.5603534027429693 -1.214220859242093,1.2512897174710926 v5.170335345665114 c0,0.6909363147281242 0.54375320172286,1.2512897174710926 1.214220859242093,1.2512897174710926 h2.8391296205640772 c0.6704676575192354,0 1.214220859242093,0.5603534027429693 1.214220859242093,1.2512897174710926 v5.170023691937226 c0,0.6909363147281242 0.54375320172286,1.2512897174710926 1.214220859242093,1.2512897174710926 h4.968174414851582 c0.6704676575192354,0 1.214220859242093,0.5603534027429693 1.214220859242093,1.2512897174710926 v5.170335345665114 c0,0.6909363147281242 0.54375320172286,1.2512897174710926 1.214220859242093,1.2512897174710926 h12.601283876189171 c0.6704676575192354,0 1.214220859242093,-0.5603534027429693 1.214220859242093,-1.2512897174710926 v-5.170335345665114 c0,-0.6909363147281242 -0.54375320172286,-1.2512897174710926 -1.214220859242093,-1.2512897174710926 h-12.552291652229716 c-0.6704676575192354,0 -1.214220859242093,-0.5603534027429693 -1.214220859242093,-1.2512897174710926 V278.9931159173022 z" id="svg_39"/>
      <path d="M230.18563230315152,254.72339351173702 v-5.170335345665114 c0,-0.6909363147281242 -0.54375320172286,-1.2512897174710926 -1.214220859242093,-1.2512897174710926 H223.95454722623398 c-0.6704676575192354,0 -1.214220859242093,0.5603534027429693 -1.214220859242093,1.2512897174710926 v5.170335345665114 c0,0.6909363147281242 0.54375320172286,1.2512897174710926 1.214220859242093,1.2512897174710926 h5.0168642176754865 C229.64187910142869,255.97468322920815 230.18563230315152,255.41464148019304 230.18563230315152,254.72339351173702 z" id="svg_40"/>
      <path d="M202.21712084501272,255.97468322920815 h5.017166638811038 c0.6704676575192354,0 1.214220859242093,-0.5603534027429693 1.214220859242093,-1.2512897174710926 v-5.170335345665114 c0,-0.6909363147281242 0.54375320172286,-1.2512897174710926 1.214220859242093,-1.2512897174710926 h2.6709834691970524 h7.014355817997784 c0.6704676575192354,0 1.214220859242093,-0.5603534027429693 1.214220859242093,-1.2512897174710926 V241.8804550391925 c0,-0.6909363147281242 -0.54375320172286,-1.2512897174710926 -1.214220859242093,-1.2512897174710926 h-5.017166638811038 c-0.6704676575192354,0 -1.214220859242093,-0.5603534027429693 -1.214220859242093,-1.2512897174710926 V231.74235927098962 c0,-0.6909363147281242 -0.54375320172286,-1.2512897174710926 -1.214220859242093,-1.2512897174710926 H197.04753395388343 C196.3770662963642,230.4910695535185 195.8333130946413,231.0511113025336 195.8333130946413,231.74235927098962 v15.308431113868021 c0,0.6909363147281242 0.54375320172286,1.2512897174710926 1.214220859242093,1.2512897174710926 h2.7408427515096117 c0.6704676575192354,0 1.214220859242093,0.5603534027429693 1.214220859242093,1.2512897174710926 v5.170335345665114 C201.0028999857707,255.41464148019304 201.54635076635802,255.97468322920815 202.21712084501272,255.97468322920815 z" id="svg_41"/>
    </g><rect fill="#ffffff" stroke-dashoffset="" fill-rule="nonzero" id="svg_47" x="235" y="258" width="11" height="0" style="color: rgb(0, 0, 0);" class=""/></g>
</svg>